<svg id="Capa_1" enable-background="new 0 0 512.287 512.287" height="512" viewBox="0 0 512.287 512.287" width="512" xmlns="http://www.w3.org/2000/svg"><g><g><path d="m137.077 459.938h-25.147v39.653c0 3.483 3.363 5.977 6.695 4.966l16.945-5.139c.982-.298 2.03-.298 3.012 0l16.946 5.139c3.333 1.011 6.695-1.484 6.695-4.966v-39.653z" fill="#fdb441"/></g><g><path d="m162.224 459.939v39.649c0 3.488-3.358 5.977-6.696 4.967l-11.504-3.488c.14-.46.21-.959.21-1.479v-39.649z" fill="#fea613"/></g><g><path d="m425.621 38.527h-338.956v400.092c0 11.774 9.545 21.319 21.319 21.319h302.498c8.362 0 15.14-6.779 15.14-15.14v-406.271z" fill="#7ca1b1"/></g><g><path d="m425.62 38.528v406.279c0 8.355-6.776 15.132-15.132 15.132h-25.376c8.355 0 15.132-6.776 15.132-15.132v-406.279z" fill="#678d98"/></g><g><path d="m163.648 459.937v-421.41h-76.984v403.679c0 9.792 7.938 17.73 17.73 17.73h59.254z" fill="#cbe5e8"/></g><g><path d="m137.077 38.528h26.576v421.411h-26.576z" fill="#a8d3d8"/></g><g><path d="m349.569 202.89h-26.21c-3.866 0-6.999-3.134-6.999-6.999v-26c0-3.866-3.134-6.999-6.999-6.999h-29.451c-3.866 0-6.999 3.134-6.999 6.999v26c0 3.866-3.134 6.999-6.999 6.999h-26.21c-3.866 0-6.999 3.134-6.999 6.999v29.451c0 3.866 3.134 6.999 6.999 6.999h26.21c3.866 0 6.999 3.134 6.999 6.999v106.266c0 3.866 3.134 6.999 6.999 6.999h29.451c3.866 0 6.999-3.134 6.999-6.999v-106.266c0-3.866 3.134-6.999 6.999-6.999h26.21c3.866 0 6.999-3.134 6.999-6.999v-29.451c0-3.865-3.133-6.999-6.999-6.999z" fill="#efedef"/></g><g><path d="m356.568 209.885v29.454c0 3.868-3.138 6.996-6.996 6.996h-26.216c-3.868 0-6.996 3.138-6.996 7.006v106.262c0 3.868-3.138 6.996-6.996 6.996h-14.732c3.868 0 7.006-3.128 7.006-6.996v-121.443c0-3.868 3.128-7.006 6.996-7.006h29.964c2.629 0 4.747-2.129 4.747-4.747v-4.997c0-2.619-2.119-4.747-4.747-4.747h-29.964c-3.868 0-6.996-3.138-6.996-6.996v-39.778c0-3.858-3.138-6.996-7.006-6.996h14.732c3.858 0 6.996 3.138 6.996 6.996v26.006c0 3.868 3.128 6.996 6.996 6.996h26.216c3.858-.002 6.996 3.136 6.996 6.994z" fill="#e5e1e5"/></g><g><path d="m411.849 7.496h-294.153c-17.138 0-31.031 13.893-31.031 31.031 0 17.138 13.893 31.031 31.031 31.031h298.293c5.32 0 9.633-4.313 9.633-9.633v-38.656c-.001-7.607-6.167-13.773-13.773-13.773z" fill="#efedef"/></g><g><path d="m425.62 21.268v38.659c0 5.317-4.308 9.635-9.635 9.635h-23.437c5.317 0 9.635-4.318 9.635-9.635v-38.659c0-7.606-6.167-13.773-13.772-13.773h23.437c7.606 0 13.772 6.167 13.772 13.773z" fill="#e5e1e5"/></g><g><path d="m279.909 374.099h29.451c7.993 0 14.495-6.502 14.495-14.495v-105.769h25.714c7.993 0 14.496-6.502 14.496-14.495v-29.451c0-7.993-6.503-14.495-14.496-14.495h-25.714v-25.504c0-7.993-6.502-14.495-14.495-14.495h-29.451c-7.993 0-14.495 6.502-14.495 14.495v25.504h-25.714c-7.993 0-14.495 6.502-14.495 14.495v29.451c0 7.993 6.502 14.495 14.495 14.495h25.714v105.769c0 7.993 6.503 14.495 14.495 14.495zm-39.711-135.256v-28.457h25.714c7.993 0 14.495-6.502 14.495-14.495v-25.504h28.457v25.504c0 7.993 6.502 14.495 14.495 14.495h25.714v28.457h-25.714c-7.993 0-14.495 6.502-14.495 14.495v105.769h-28.457v-105.769c0-7.993-6.502-14.495-14.495-14.495z"/><path d="m411.849 0h-294.154c-21.243 0-38.526 17.283-38.526 38.527v82.562c0 4.14 3.356 7.496 7.496 7.496s7.496-3.356 7.496-7.496v-52.09c6.515 5.043 14.677 8.056 23.535 8.056h38.457v375.388h-48.181c-7.615 0-13.811-6.196-13.811-13.811v-282.438c0-4.14-3.356-7.496-7.496-7.496s-7.496 3.356-7.496 7.496v282.437c0 14.684 11.047 26.828 25.266 28.578v32.382c0 4.058 1.869 7.771 5.129 10.189 2.227 1.652 4.845 2.507 7.519 2.507 1.239 0 2.49-.183 3.719-.556l16.277-4.936 16.276 4.936c3.883 1.177 7.979.466 11.238-1.951s5.129-6.131 5.129-10.189v-32.157h155.879c4.14 0 7.496-3.356 7.496-7.496s-3.356-7.496-7.496-7.496h-154.457v-375.388h244.844c.725 0 1.435-.06 2.137-.148v367.9c0 4.21-3.426 7.636-7.636 7.636h-50.278c-4.14 0-7.496 3.356-7.496 7.496s3.356 7.496 7.496 7.496h50.278c12.477 0 22.628-10.151 22.628-22.628v-423.537c.001-11.728-9.541-21.269-21.268-21.269zm-257.12 496.481-13.97-4.236c-1.204-.365-2.443-.548-3.681-.548-1.239 0-2.477.182-3.681.548l-13.97 4.236v-29.047h35.302zm263.397-465.45h-273.576c-4.14 0-7.496 3.356-7.496 7.496s3.356 7.496 7.496 7.496h273.575v13.902c0 1.178-.958 2.137-2.137 2.137h-298.293c-12.977 0-23.535-10.558-23.535-23.535s10.558-23.535 23.535-23.535h294.153c3.461 0 6.277 2.816 6.277 6.277v9.762z"/></g></g></svg>