<svg height="451pt" viewBox="0 0 451 451.88" width="451pt" xmlns="http://www.w3.org/2000/svg"><path d="m3.441406 222.589844v226.289062c71.222656-29.5 151.253906-29.5 222.480469 0v-298.128906c-71.226563-29.503906-151.257813-29.503906-222.480469 0zm0 0" fill="#fae6ca"/><path d="m225.921875 451.878906c-.386719 0-.777344-.074218-1.148437-.226562-70.992188-29.410156-149.191407-29.410156-220.183594 0-.929688.382812-1.984375.28125-2.816406-.277344-.832032-.558594-1.332032-1.492188-1.332032-2.496094v-226.289062c0-1.65625 1.339844-3 3-3 1.65625 0 3 1.34375 3 3v221.835937c69.976563-27.777343 146.503906-27.777343 216.480469 0v-291.664062c-69.882813-28.394531-146.597656-28.394531-216.480469 0v43.316406c0 1.65625-1.34375 3-3 3-1.660156 0-3-1.34375-3-3v-45.328125c0-1.214844.730469-2.308594 1.851563-2.773438 72.476562-30.019531 152.300781-30.019531 224.777343 0 1.121094.464844 1.851563 1.558594 1.851563 2.773438v298.128906c0 1.003906-.5 1.9375-1.332031 2.496094-.5.335938-1.082032.503906-1.667969.503906zm0 0" fill="#3a312a"/><path d="m448.410156 150.75c-71.222656-29.503906-151.253906-29.503906-222.480468 0v298.128906c71.226562-29.5 151.257812-29.5 222.480468 0 0-99.375 0-198.75 0-298.128906zm0 0" fill="#fae6ca"/><g fill="#3a312a"><path d="m448.410156 451.878906c-.386718 0-.777344-.074218-1.144531-.226562-70.992187-29.40625-149.191406-29.410156-220.1875 0-.929687.382812-1.980469.28125-2.816406-.277344-.832031-.558594-1.332031-1.492188-1.332031-2.496094v-298.128906c0-1.214844.726562-2.308594 1.851562-2.773438 72.480469-30.019531 152.304688-30.019531 224.777344 0 1.125.464844 1.851562 1.558594 1.851562 2.773438v298.128906c0 1.003906-.5 1.9375-1.332031 2.496094-.5.335938-1.082031.503906-1.667969.503906zm-219.480468-299.117187v291.664062c69.976562-27.777343 146.503906-27.777343 216.480468 0v-291.664062c-69.882812-28.394531-146.597656-28.394531-216.480468 0zm0 0"/><path d="m29.078125 395.730469c-1.28125 0-2.464844-.828125-2.863281-2.117188-.492188-1.582031.398437-3.261719 1.980468-3.75 56.566407-17.457031 116.375-17.453125 172.96875 0 1.582032.488281 2.472657 2.167969 1.984376 3.75-.488282 1.585938-2.171876 2.476563-3.75 1.984375-55.4375-17.097656-114.023438-17.09375-169.433594 0-.292969.089844-.589844.132813-.886719.132813zm0 0"/><path d="m252.742188 395.34375c-1.285157 0-2.472657-.832031-2.867188-2.128906-.480469-1.585938.414062-3.257813 1.996094-3.742188 55.636718-16.90625 114.484375-16.941406 170.179687-.109375 1.585938.480469 2.484375 2.152344 2.003907 3.738281-.480469 1.589844-2.164063 2.484376-3.738282 2.003907-54.558594-16.488281-112.203125-16.449219-166.699218.109375-.289063.085937-.582032.128906-.875.128906zm0 0"/><path d="m200.28125 354.308594c-.292969 0-.589844-.039063-.882812-.132813-55.4375-17.097656-114.023438-17.097656-169.433594 0-1.582032.488281-3.261719-.398437-3.75-1.980469-.492188-1.585937.398437-3.261718 1.980468-3.753906 56.566407-17.457031 116.375-17.453125 172.96875 0 1.582032.488282 2.472657 2.167969 1.984376 3.75-.394532 1.289063-1.585938 2.117188-2.867188 2.117188zm0 0"/><path d="m252.742188 353.925781c-1.285157 0-2.472657-.835937-2.867188-2.128906-.480469-1.585937.414062-3.261719 1.996094-3.742187 55.636718-16.90625 114.480468-16.941407 170.179687-.113282 1.585938.480469 2.484375 2.15625 2.003907 3.742188-.480469 1.585937-2.164063 2.476562-3.738282 2.003906-54.558594-16.488281-112.203125-16.449219-166.699218.105469-.289063.089843-.582032.132812-.875.132812zm0 0"/><path d="m200.28125 312.890625c-.292969 0-.589844-.039063-.882812-.132813-55.4375-17.097656-114.023438-17.097656-169.433594 0-1.582032.484376-3.261719-.398437-3.75-1.984374-.492188-1.582032.398437-3.261719 1.980468-3.75 56.566407-17.457032 116.375-17.453126 172.96875 0 1.582032.488281 2.472657 2.167968 1.984376 3.75-.394532 1.289062-1.585938 2.117187-2.867188 2.117187zm0 0"/><path d="m252.742188 312.503906c-1.285157 0-2.472657-.832031-2.867188-2.128906-.480469-1.585938.414062-3.257812 1.996094-3.742188 55.636718-16.90625 114.484375-16.941406 170.179687-.109374 1.585938.480468 2.484375 2.152343 2.003907 3.738281-.480469 1.589843-2.164063 2.480469-3.738282 2.003906-54.558594-16.488281-112.203125-16.449219-166.699218.109375-.289063.085938-.582032.128906-.875.128906zm0 0"/><path d="m29.078125 271.472656c-1.28125 0-2.464844-.828125-2.863281-2.117187-.492188-1.582031.398437-3.261719 1.980468-3.75 56.566407-17.457031 116.375-17.457031 172.96875 0 1.582032.488281 2.472657 2.167969 1.984376 3.75-.488282 1.582031-2.171876 2.472656-3.75 1.984375-55.4375-17.101563-114.023438-17.097656-169.433594 0-.292969.089844-.589844.132812-.886719.132812zm0 0"/><path d="m252.742188 271.085938c-1.285157 0-2.472657-.835938-2.867188-2.128907-.480469-1.585937.414062-3.261719 1.996094-3.742187 55.636718-16.90625 114.484375-16.941406 170.179687-.113282 1.585938.480469 2.484375 2.15625 2.003907 3.742188-.480469 1.585938-2.164063 2.476562-3.738282 2.003906-54.558594-16.488281-112.203125-16.449218-166.699218.105469-.289063.089844-.582032.132813-.875.132813zm0 0"/><path d="m200.28125 230.050781c-.292969 0-.589844-.039062-.882812-.132812-55.4375-17.097657-114.023438-17.097657-169.433594-.003907-1.582032.488282-3.261719-.398437-3.75-1.980468-.492188-1.582032.398437-3.261719 1.980468-3.75 56.566407-17.457032 116.375-17.457032 172.96875 0 1.582032.488281 2.472657 2.167968 1.984376 3.75-.394532 1.289062-1.585938 2.117187-2.867188 2.117187zm0 0"/><path d="m252.742188 229.664062c-1.285157 0-2.472657-.832031-2.867188-2.125-.480469-1.585937.414062-3.261718 1.996094-3.742187 55.636718-16.90625 114.484375-16.941406 170.179687-.113281 1.585938.480468 2.484375 2.15625 2.003907 3.742187-.480469 1.585938-2.164063 2.476563-3.738282 2.003907-54.558594-16.488282-112.203125-16.453126-166.699218.105468-.289063.089844-.582032.128906-.875.128906zm0 0"/><path d="m200.28125 188.632812c-.292969 0-.589844-.039062-.882812-.132812-55.4375-17.097656-114.023438-17.097656-169.433594-.003906-1.582032.488281-3.261719-.394532-3.75-1.980469-.492188-1.582031.398437-3.261719 1.980468-3.75 56.566407-17.457031 116.375-17.453125 172.96875 0 1.582032.488281 2.472657 2.167969 1.984376 3.75-.394532 1.289063-1.585938 2.117187-2.867188 2.117187zm0 0"/><path d="m252.742188 188.246094c-1.285157 0-2.472657-.835938-2.867188-2.128906-.480469-1.582032.414062-3.257813 1.996094-3.742188 55.636718-16.902344 114.480468-16.941406 170.179687-.113281 1.585938.480469 2.484375 2.152343 2.003907 3.742187-.480469 1.585938-2.164063 2.476563-3.738282 2.003906-54.558594-16.488281-112.203125-16.449218-166.699218.109376-.289063.089843-.582032.128906-.875.128906zm0 0"/></g><path d="m65.746094 22.441406s6.816406 25.316406 26.445312 26.492188c0 0-26.199218 9.046875-26.640625 28.402344 0 0-5.160156-27.144532-25.851562-28.117188 0 0 24.101562-3.652344 26.046875-26.777344zm0 0" fill="#d7e057"/><path d="m65.546875 80.335938c-1.425781 0-2.667969-1.015626-2.941406-2.4375-.050781-.246094-4.992188-24.832032-23.046875-25.683594-1.539063-.074219-2.777344-1.300782-2.855469-2.839844-.082031-1.542969 1.019531-2.890625 2.542969-3.121094.882812-.140625 21.789062-3.636718 23.511718-24.066406.121094-1.453125 1.265626-2.601562 2.714844-2.734375 1.476563-.125 2.789063.796875 3.167969 2.199219.0625.234375 6.515625 23.253906 23.726563 24.285156 1.429687.085938 2.59375 1.167969 2.792968 2.582031.195313 1.417969-.636718 2.777344-1.988281 3.246094-.242187.085937-24.234375 8.621094-24.625 25.636719-.035156 1.535156-1.222656 2.792968-2.75 2.921875-.082031.007812-.167969.011719-.25.011719zm-15.480469-31.460938c7.753906 3.9375 12.460938 11.492188 15.171875 17.753906 4.054688-8.042968 11.882813-13.574218 17.898438-16.855468-8.265625-3.683594-13.566407-11.300782-16.664063-17.445313-3.589844 8.722656-10.546875 13.738281-16.40625 16.546875zm0 0" fill="#3a312a"/><path d="m22.351562 56.398438s4.820313 17.910156 18.703126 18.738281c0 0-18.53125 6.402343-18.84375 20.089843 0 0-3.648438-19.199218-18.285157-19.886718 0 .003906 17.046875-2.578125 18.425781-18.941406zm0 0" fill="#d7e057"/><path d="m22.207031 98.230469c-1.425781 0-2.671875-1.015625-2.941406-2.441407-.035156-.164062-3.410156-16.882812-15.480469-17.449218-1.542968-.074219-2.773437-1.304688-2.855468-2.84375-.078126-1.542969 1.023437-2.890625 2.546874-3.121094.589844-.09375 14.726563-2.488281 15.882813-16.230469.121094-1.449219 1.269531-2.605469 2.71875-2.734375 1.460937-.136718 2.785156.796875 3.164063 2.203125.042968.15625 4.457031 15.839844 15.988281 16.527344 1.429687.085937 2.597656 1.167969 2.792969 2.585937.195312 1.417969-.640626 2.777344-1.992188 3.246094-.160156.054688-16.5625 5.902344-16.824219 17.324219-.035156 1.53125-1.222656 2.792969-2.753906 2.921875-.078125.007812-.164063.011719-.246094.011719zm-9.035156-23.054688c4.210937 2.664063 7.042969 6.789063 8.890625 10.558594 2.753906-4.464844 7.03125-7.746094 10.730469-9.945313-4.574219-2.539062-7.765625-6.699218-9.882813-10.445312-2.347656 4.570312-6.027344 7.75-9.738281 9.832031zm0 0" fill="#3a312a"/><path d="m22.351562 3.085938s4.820313 17.90625 18.703126 18.738281c0 0-18.53125 6.402343-18.84375 20.089843 0 0-3.648438-19.199218-18.285157-19.886718 0 0 17.046875-2.582032 18.425781-18.941406zm0 0" fill="#d7e057"/><path d="m22.207031 44.914062c-1.425781 0-2.671875-1.011718-2.941406-2.4375-.035156-.164062-3.410156-16.882812-15.480469-17.453124-1.542968-.074219-2.773437-1.300782-2.855468-2.839844-.078126-1.542969 1.023437-2.890625 2.546874-3.121094.589844-.09375 14.726563-2.488281 15.882813-16.226562.121094-1.453126 1.269531-2.609376 2.71875-2.7382818 1.460937-.125 2.785156.7968748 3.164063 2.2031248.042968.160157 4.457031 15.839844 15.988281 16.53125 1.429687.085938 2.597656 1.167969 2.792969 2.585938.195312 1.417969-.640626 2.777343-1.992188 3.242187-.160156.058594-16.5625 5.90625-16.824219 17.324219-.035156 1.535156-1.222656 2.796875-2.753906 2.921875-.078125.007812-.164063.007812-.246094.007812zm-9.035156-23.054687c4.210937 2.664063 7.042969 6.789063 8.890625 10.5625 2.753906-4.464844 7.03125-7.746094 10.730469-9.945313-4.574219-2.539062-7.765625-6.699218-9.882813-10.449218-2.347656 4.574218-6.027344 7.75-9.738281 9.832031zm0 0" fill="#3a312a"/><path d="m439.921875 43.339844 6.46875-12.800782c4.671875-9.246093.96875-20.527343-8.277344-25.199218-9.242187-4.671875-20.523437-.964844-25.199219 8.277344l-6.46875 12.800781zm0 0" fill="#ef6d7a"/><path d="m439.921875 46.339844c-.464844 0-.929687-.109375-1.355469-.324219l-33.472656-16.917969c-.710938-.363281-1.25-.988281-1.496094-1.742187-.25-.757813-.191406-1.582031.171875-2.292969l6.46875-12.796875c2.621094-5.1875 7.105469-9.042969 12.625-10.855469 5.519531-1.816406 11.417969-1.3671872 16.601563 1.25 10.707031 5.414063 15.011718 18.527344 9.601562 29.230469l-6.464844 12.800781c-.363281.710938-.988281 1.25-1.742187 1.5-.308594.097656-.625.148438-.9375.148438zm-29.445313-21.246094 28.121094 14.214844 5.117188-10.125c3.917968-7.753906.796875-17.25-6.953125-21.164063-3.753907-1.898437-8.027344-2.222656-12.027344-.910156-3.996094 1.316406-7.242187 4.105469-9.140625 7.863281zm0 0" fill="#3a312a"/><path d="m419.726562 82.972656 20.195313-39.632812-33.476563-16.921875-152.761718 299.800781 33.472656 16.917969 120.453125-236.378907zm0 0" fill="#8ac5dc"/><path d="m287.152344 346.140625c-.453125 0-.917969-.105469-1.351563-.324219l-33.472656-16.921875c-.710937-.359375-1.25-.988281-1.5-1.746093-.246094-.757813-.183594-1.582032.179687-2.292969l152.765626-299.800781c.75-1.46875 2.546874-2.0625 4.027343-1.316407l33.476563 16.921875c.707031.359375 1.25.988282 1.496094 1.746094.25.757812.183593 1.582031-.175782 2.292969l-20.199218 39.636719c-.753907 1.476562-2.5625 2.058593-4.035157 1.308593-1.476562-.753906-2.066406-2.558593-1.3125-4.035156l18.832031-36.957031-28.121093-14.210938-150.042969 294.453125 28.125 14.214844 119.089844-233.71875c.753906-1.480469 2.5625-2.0625 4.035156-1.3125 1.476562.753906 2.066406 2.558594 1.3125 4.039063l-120.453125 236.378906c-.53125 1.042968-1.582031 1.644531-2.675781 1.644531zm0 0" fill="#3a312a"/><path d="m329.8125 176.808594-76.128906 149.410156 33.472656 16.917969 76.132812-149.40625zm0 0" fill="#ef6d7a"/><path d="m287.152344 346.140625c-.453125 0-.917969-.105469-1.351563-.324219l-33.472656-16.921875c-.710937-.359375-1.25-.988281-1.5-1.746093-.246094-.757813-.183594-1.582032.179687-2.292969l76.128907-149.40625c.753906-1.476563 2.550781-2.0625 4.027343-1.316407l33.476563 16.917969c.710937.359375 1.25.988281 1.5 1.746094.246094.757813.183594 1.582031-.179687 2.296875l-76.132813 149.410156c-.53125 1.035156-1.582031 1.636719-2.675781 1.636719zm-29.433594-21.242187 28.125 14.214843 73.40625-144.066406-28.121094-14.210937zm0 0" fill="#3a312a"/><path d="m287.15625 343.136719-33.472656-16.917969-5.160156 51.78125zm0 0" fill="#d6df58"/><path d="m248.523438 381c-.460938 0-.921876-.105469-1.351563-.320312-1.109375-.5625-1.757813-1.742188-1.632813-2.976563l5.15625-51.78125c.097657-.984375.675782-1.859375 1.542969-2.332031.867188-.476563 1.914063-.496094 2.796875-.050782l33.472656 16.921876c.882813.445312 1.488282 1.296874 1.621094 2.277343.132813.980469-.230468 1.964844-.964844 2.628907l-38.628906 34.859374c-.566406.507813-1.285156.773438-2.011718.773438zm7.707031-50.128906-3.953125 39.699218 29.617187-26.726562zm0 0" fill="#3a312a"/><path d="m350.753906 81.484375c0-43.34375-55.886718-78.484375-124.828125-78.484375-68.941406 0-124.824219 35.140625-124.824219 78.484375 0 34.988281 36.417969 64.617187 86.710938 74.746094l3.023438 41.996093c.265624 3.730469 4.726562 5.492188 7.472656 2.957032l45.507812-42.027344c60.460938-5.457031 106.9375-38.144531 106.9375-77.671875zm0 0" fill="#ef6d7a"/><path d="m195.300781 205.378906c-.925781 0-1.859375-.175781-2.761719-.53125-2.691406-1.066406-4.492187-3.519531-4.699218-6.402344l-2.859375-39.738281c-52.070313-11.152343-86.882813-41.996093-86.882813-77.222656.003906-44.929687 57.34375-81.484375 127.828125-81.484375s127.828125 36.554688 127.828125 81.484375c0 40.121094-46.632812 74.640625-108.648437 80.566406l-44.761719 41.335938c-1.410156 1.308593-3.207031 1.992187-5.042969 1.992187zm30.625-199.378906c-67.171875 0-121.824219 33.863281-121.824219 75.484375 0 32.792969 33.878907 61.648437 84.304688 71.804687 1.320312.265626 2.300781 1.382813 2.398438 2.726563l3.019531 42c.0625.824219.664062 1.148437.921875 1.25.257812.105469.917968.277344 1.527344-.285156l45.507812-42.027344c.488281-.449219 1.109375-.726563 1.765625-.785156 59.40625-5.363281 104.207031-37.46875 104.207031-74.683594 0-41.621094-54.652344-75.484375-121.828125-75.484375zm0 0" fill="#3a312a"/><path d="m162.714844 99.484375h-18.964844l-2.632812 8.925781h-17.058594l20.320312-54.054687h18.21875l20.3125 54.054687h-17.492187zm-3.464844-11.6875-5.964844-19.433594-5.90625 19.433594zm0 0" fill="#87796f"/><path d="m182.910156 111.40625h-17.488281c-1.324219 0-2.488281-.863281-2.875-2.128906l-2.058594-6.792969h-14.496093l-2 6.773437c-.375 1.277344-1.546876 2.148438-2.875 2.148438h-17.058594c-.984375 0-1.90625-.480469-2.464844-1.289062-.558594-.8125-.6875-1.84375-.339844-2.765626l20.316406-54.054687c.441407-1.171875 1.558594-1.945313 2.808594-1.945313h18.21875c1.25 0 2.371094.773438 2.808594 1.945313l20.3125 54.054687c.34375.921876.21875 1.953126-.34375 2.765626-.558594.808593-1.480469 1.289062-2.464844 1.289062zm-15.265625-6h10.933594l-18.058594-48.054688h-14.066406l-18.0625 48.054688h10.484375l1.996094-6.769531c.375-1.277344 1.546875-2.152344 2.875-2.152344h18.964844c1.320312 0 2.488281.867187 2.871093 2.132813zm-8.394531-14.609375h-11.871094c-.949218 0-1.84375-.449219-2.410156-1.214844-.566406-.761719-.734375-1.75-.457031-2.65625l5.902343-19.433593c.382813-1.261719 1.546876-2.125 2.867188-2.128907h.003906c1.316406 0 2.480469.859375 2.867188 2.121094l5.964844 19.429687c.28125.910157.109374 1.898438-.457032 2.664063-.5625.765625-1.457031 1.21875-2.410156 1.21875zm-7.824219-6h3.765625l-1.894531-6.164063zm0 0" fill="#3a312a"/><path d="m203.359375 54.351562h31.269531c5.210938 0 9.210938 1.292969 12 3.871094 2.792969 2.582032 4.1875 5.777344 4.1875 9.585938 0 3.199218-.996094 5.9375-2.988281 8.222656-1.324219 1.523438-3.269531 2.730469-5.824219 3.613281 3.882813.933594 6.742188 2.539063 8.570313 4.8125 1.832031 2.273438 2.75 5.132813 2.75 8.570313 0 2.800781-.652344 5.324218-1.953125 7.558594-1.304688 2.238281-3.085938 4.007812-5.347656 5.308593-1.402344.8125-3.515626 1.402344-6.339844 1.769531-3.761719.492188-6.257813.738282-7.484375.738282h-28.835938v-54.050782zm16.851563 21.203126h7.261718c2.605469 0 4.417969-.449219 5.441406-1.347657 1.019532-.894531 1.53125-2.191406 1.53125-3.890625 0-1.574218-.511718-2.800781-1.53125-3.6875-1.019531-.882812-2.796874-1.328125-5.328124-1.328125h-7.375zm0 21.238281h8.515624c2.875 0 4.902344-.507813 6.082032-1.527344 1.183594-1.023437 1.769531-2.390625 1.769531-4.113281 0-1.597656-.582031-2.882813-1.75-3.855469-1.167969-.96875-3.214844-1.453125-6.140625-1.453125h-8.480469v10.949219zm0 0" fill="#87796f"/><path d="m232.195312 111.40625h-28.835937c-1.65625 0-3-1.339844-3-3v-54.054688c0-1.65625 1.34375-3 3-3h31.269531c5.964844 0 10.6875 1.574219 14.039063 4.671876 3.417969 3.160156 5.148437 7.125 5.148437 11.789062 0 3.921875-1.253906 7.351562-3.726562 10.195312-.355469.40625-.742188.792969-1.160156 1.164063 1.589843.949219 2.917968 2.085937 3.984374 3.40625 2.261719 2.8125 3.410157 6.328125 3.410157 10.457031 0 3.324219-.792969 6.371094-2.359375 9.066406-1.566406 2.6875-3.734375 4.839844-6.445313 6.402344-1.761719 1.019532-4.199219 1.71875-7.453125 2.144532-3.925781.507812-6.5.757812-7.871094.757812zm-25.835937-6h25.835937c.75 0 2.59375-.121094 7.097657-.710938 3.011719-.390624 4.503906-.972656 5.226562-1.390624 1.820313-1.050782 3.210938-2.429688 4.257813-4.226563 1.039062-1.785156 1.542968-3.761719 1.542968-6.042969 0-2.761718-.679687-4.949218-2.082031-6.691406-1.394531-1.734375-3.730469-3.003906-6.941406-3.78125-1.292969-.308594-2.226563-1.441406-2.289063-2.769531-.066406-1.332031.753907-2.546875 2.015626-2.980469 2.039062-.707031 3.570312-1.628906 4.539062-2.75 1.515625-1.738281 2.253906-3.78125 2.253906-6.25 0-2.964844-1.054687-5.378906-3.222656-7.382812-2.207031-2.042969-5.558594-3.074219-9.964844-3.074219h-28.265625v48.050781zm22.367187-5.613281h-8.515624c-1.660157 0-3-1.34375-3-3v-10.953125c0-1.65625 1.339843-3 3-3h8.476562c3.683594 0 6.320312.703125 8.058594 2.148437 1.855468 1.542969 2.832031 3.671875 2.832031 6.160157 0 2.589843-.96875 4.796874-2.808594 6.382812-1.75 1.519531-4.386719 2.261719-8.042969 2.261719zm-5.515624-6h5.515624c2.96875 0 3.90625-.609375 4.121094-.800781.367188-.3125.738282-.777344.738282-1.84375 0-.867188-.324219-1.253907-.671876-1.542969-.152343-.128907-1.078124-.761719-4.222656-.761719h-5.476562v4.949219zm4.261718-15.238281h-7.261718c-1.65625 0-3-1.34375-3-3v-10.25c0-1.660157 1.34375-3 3-3h7.375c3.304687 0 5.691406.671874 7.292968 2.058593 1.171875 1.019531 2.5625 2.875 2.5625 5.957031 0 3.222657-1.382812 5.117188-2.546875 6.140626-1.601562 1.410156-4.027343 2.09375-7.421875 2.09375zm-4.261718-6h4.261718c2.75 0 3.429688-.578126 3.460938-.601563.125-.109375.511718-.449219.511718-1.636719 0-.992187-.335937-1.28125-.5-1.421875-.066406-.054687-.757812-.589843-3.359374-.589843h-4.375zm0 0" fill="#3a312a"/><path d="m313.152344 86.285156 14.636718 4.425782c-.984374 4.105468-2.53125 7.53125-4.644531 10.285156-2.113281 2.757812-4.738281 4.832031-7.871093 6.234375-3.136719 1.402343-7.125 2.101562-11.964844 2.101562-5.875 0-10.675782-.855469-14.402344-2.5625-3.722656-1.707031-6.9375-4.710937-9.640625-9.007812-2.703125-4.300781-4.054687-9.800781-4.054687-16.507813 0-8.945312 2.378906-15.816406 7.132812-20.617187 4.757812-4.804688 11.484375-7.203125 20.1875-7.203125 6.808594 0 12.164062 1.375 16.0625 4.128906 3.894531 2.753906 6.789062 6.980469 8.679688 12.683594l-14.746094 3.28125c-.519532-1.644532-1.058594-2.851563-1.625-3.613282-.933594-1.277343-2.078125-2.261718-3.429688-2.949218-1.351562-.6875-2.863281-1.03125-4.535156-1.03125-3.785156 0-6.683594 1.519531-8.703125 4.5625-1.523437 2.261718-2.285156 5.808594-2.285156 10.644531 0 5.992187.910156 10.097656 2.730469 12.320313 1.816406 2.222656 4.375 3.335937 7.667968 3.335937 3.195313 0 5.609375-.898437 7.246094-2.691406 1.632812-1.796875 2.820312-4.402344 3.558594-7.820313zm0 0" fill="#87796f"/><path d="m303.308594 112.328125c-6.28125 0-11.546875-.953125-15.652344-2.832031-4.242188-1.945313-7.921875-5.355469-10.929688-10.136719-2.996093-4.765625-4.515624-10.855469-4.515624-18.105469 0-9.71875 2.691406-17.367187 8.003906-22.730468 5.316406-5.371094 12.828125-8.089844 22.316406-8.089844 7.410156 0 13.394531 1.574218 17.789062 4.679687 4.414063 3.117188 7.710938 7.890625 9.800782 14.1875.269531.804688.179687 1.683594-.238282 2.421875-.417968.738282-1.125 1.265625-1.953124 1.453125l-14.75 3.28125c-1.515626.324219-3.050782-.542969-3.515626-2.03125-.5625-1.792969-1.007812-2.503906-1.171874-2.726562-.671876-.914063-1.445313-1.585938-2.378907-2.0625-.933593-.476563-1.96875-.707031-3.171875-.707031-2.777344 0-4.746094 1.023437-6.203125 3.222656-.824219 1.222656-1.789062 3.75-1.789062 8.988281 0 6.882813 1.285156 9.480469 2.054687 10.417969 1.242188 1.523437 2.945313 2.234375 5.34375 2.234375 2.335938 0 3.980469-.5625 5.03125-1.714844 1.261719-1.382813 2.21875-3.546875 2.84375-6.429687.175782-.816407.6875-1.523438 1.410156-1.949219.71875-.425781 1.589844-.535157 2.386719-.289063l14.636719 4.425782c1.523438.457031 2.421875 2.023437 2.050781 3.570312-1.078125 4.5-2.824219 8.339844-5.183593 11.414062-2.410157 3.140626-5.449219 5.546876-9.027344 7.144532-3.503906 1.570312-7.941406 2.363281-13.1875 2.363281zm-.773438-55.898437c-7.941406 0-13.847656 2.066406-18.058594 6.316406-4.15625 4.199218-6.265624 10.425781-6.265624 18.503906 0 6.101562 1.210937 11.121094 3.59375 14.910156 2.378906 3.777344 5.1875 6.429688 8.355468 7.878906 3.3125 1.519532 7.738282 2.289063 13.148438 2.289063 4.398437 0 8.011718-.617187 10.742187-1.839844 2.695313-1.203125 4.890625-2.941406 6.714844-5.316406 1.371094-1.785156 2.488281-3.945313 3.332031-6.445313l-8.875-2.679687c-.84375 2.472656-1.984375 4.507813-3.410156 6.074219-2.21875 2.4375-5.40625 3.671875-9.464844 3.671875-4.21875 0-7.582031-1.492188-9.988281-4.429688-2.292969-2.804687-3.410156-7.457031-3.410156-14.222656 0-5.5.917969-9.527344 2.804687-12.320313 2.542969-3.84375 6.417969-5.886718 11.1875-5.886718 2.136719 0 4.121094.457031 5.894532 1.355468 1.769531.902344 3.277343 2.195313 4.488281 3.851563.382812.515625.742187 1.144531 1.085937 1.894531l8.800782-1.960937c-1.605469-3.507813-3.734376-6.214844-6.351563-8.0625-3.363281-2.378907-8.179687-3.582031-14.324219-3.582031zm0 0" fill="#3a312a"/><path d="m395.304688 137.5-3.5 6.859375c2.796874.851563 5.582031 1.753906 8.363281 2.703125 9.125 3.117188 15.238281 11.730469 15.238281 21.371094v11.925781c2.21875.601563 4.441406 1.242187 6.640625 1.902344 1.597656.476562 2.480469 2.160156 2 3.738281-.460937 1.578125-2.160156 2.480469-3.722656 2-1.636719-.5-3.277344-.980469-4.917969-1.421875v35.183594c2.21875.617187 4.441406 1.257812 6.640625 1.917969 1.597656.480468 2.480469 2.160156 2 3.742187-.460937 1.597656-2.160156 2.476563-3.722656 2-1.636719-.5-3.277344-.980469-4.917969-1.441406v35.199219c2.21875.621093 4.441406 1.261718 6.640625 1.921874 1.597656.476563 2.480469 2.160157 2 3.738282-.460937 1.582031-2.160156 2.480468-3.722656 2-1.636719-.5-3.277344-.980469-4.917969-1.441406v35.203124c2.21875.617188 4.441406 1.257813 6.640625 1.917969 1.597656.480469 2.480469 2.160157 2 3.742188-.460937 1.578125-2.160156 2.476562-3.722656 2-1.636719-.5-3.277344-.980469-4.917969-1.421875v35.179687c2.21875.621094 4.441406 1.261719 6.640625 1.921875 1.597656.480469 2.480469 2.160156 2 3.738282-.460937 1.582031-2.160156 2.480468-3.722656 2-1.636719-.5-3.277344-.980469-4.917969-1.417969v35.179687c2.21875.617188 4.441406 1.257813 6.640625 1.917969 1.597656.480469 2.480469 2.160156 2 3.742187-.460937 1.578126-2.160156 2.476563-3.722656 2-1.636719-.5-3.277344-.980468-4.917969-1.441406v40.660156c10.101562 2.820313 20.121094 6.179688 30 10.101563v-291.660156c-16.378906-6.660157-33.140625-11.742188-50.101562-15.261719zm0 0" fill="#decaad"/></svg>