<svg height="512" viewBox="0 0 512 512" width="512" xmlns="http://www.w3.org/2000/svg"><path d="m72 472h144a0 0 0 0 1 0 0v8a16 16 0 0 1 -16 16h-112a16 16 0 0 1 -16-16v-8a0 0 0 0 1 0 0z" fill="#555a6e" transform="matrix(-1 0 0 -1 288 968)"/><path d="m72 472h72a0 0 0 0 1 0 0v8a16 16 0 0 1 -16 16h-56a0 0 0 0 1 0 0v-24a0 0 0 0 1 0 0z" fill="#463c4b" transform="matrix(-1 0 0 -1 216 968)"/><path d="m136 248-38.627 38.627a32 32 0 0 0 -9.373 22.628v162.745h112v-16a32 32 0 0 0 32-32v-176z" fill="#f0915a"/><rect fill="#4b55a5" height="400" rx="16" width="320" x="120" y="16"/><rect fill="#6478b9" height="400" rx="16" width="304" x="120" y="16"/><rect fill="#4b55a5" height="400" rx="16" width="240" x="120" y="16"/><rect fill="#6478b9" height="400" rx="16" width="224" x="120" y="16"/><path d="m360 40h32a8 8 0 0 1 8 8v336a8 8 0 0 1 -8 8h-32a0 0 0 0 1 0 0v-352a0 0 0 0 1 0 0z" fill="#d7e6f0"/><path d="m156.039 308.039-.725-.725a16 16 0 0 0 -22.628 0l-44.686 44.686v104a56 56 0 0 0 56-56v-34.667l12.039-12.039a32 32 0 0 0 0-45.255z" fill="#fab991"/><path d="m130.667 309.333 2.019 2.02a16 16 0 0 1 0 22.627l-1.7 1.7a8 8 0 0 1 -11.314 0l-7.672-7.68z" fill="#f0915a"/><circle cx="232" cy="128" fill="#fabe19" r="80"/><g fill="#55525b"><path d="m248 161.333h-4v-41.333a12 12 0 0 0 -12-12h-16a12 12 0 0 0 0 24h4v29.333h-4a12 12 0 0 0 0 24h32a12 12 0 0 0 0-24z"/><circle cx="232" cy="85.333" r="16"/></g></svg>